<?xml version="1.0" encoding="UTF-8"?>
<svg xmlns="http://www.w3.org/2000/svg" xmlns:xlink="http://www.w3.org/1999/xlink" version="1.1" viewBox="0 0 1080 1080">
  <!-- Generator: Adobe Illustrator 30.0.0, SVG Export Plug-In . SVG Version: 2.1.1 Build 123)  -->
  <defs>
    <style>
      .st0 {
        fill: #4b69ad;
      }

      .st1 {
        mask: url(#mask);
      }

      .st2 {
        fill: #53d000;
      }

      .st3, .st4, .st5, .st6, .st7, .st8, .st9, .st10, .st11, .st12 {
        fill: none;
        stroke-miterlimit: 10;
      }

      .st3, .st5, .st6, .st7 {
        stroke: #1e3a8a;
      }

      .st3, .st10 {
        stroke-width: 12.37px;
      }

      .st4 {
        stroke: url(#Unbenannter_Verlauf1);
      }

      .st4, .st6, .st12 {
        stroke-width: 19.88px;
      }

      .st5, .st9 {
        stroke-width: 11px;
      }

      .st7 {
        stroke-width: 30.27px;
      }

      .st13 {
        fill: #89e051;
      }

      .st14 {
        font-family: Expose-Regular, Expose;
        font-size: 15px;
      }

      .st15 {
        fill: #bded9d;
      }

      .st16, .st17 {
        font-family: MyriadPro-Regular, 'Myriad Pro';
        font-size: 25px;
      }

      .st18 {
        fill: #92b6f4;
      }

      .st19 {
        mask: url(#mask-1);
      }

      .st20, .st17 {
        fill: #fff;
      }

      .st21, .st22 {
        fill: #bababa;
      }

      .st21, .st23 {
        opacity: .6;
      }

      .st8 {
        stroke-width: 10px;
      }

      .st8, .st9, .st10, .st11 {
        stroke: #53d000;
      }

      .st11 {
        stroke-width: 28.74px;
      }

      .st24 {
        fill: #1e3a8a;
      }

      .st12 {
        stroke: url(#Unbenannter_Verlauf);
      }

      .st25 {
        display: none;
      }
    </style>
    <linearGradient id="Unbenannter_Verlauf" data-name="Unbenannter Verlauf" x1="-774.34" y1="669.72" x2="-251.18" y2="669.72" gradientUnits="userSpaceOnUse">
      <stop offset="0" stop-color="#fff"/>
      <stop offset="1" stop-color="#000"/>
    </linearGradient>
    <mask id="mask" x="-774.34" y="624.69" width="523.15" height="90.05" maskUnits="userSpaceOnUse">
      <path class="st12" d="M-766.41,708.75c9.57-12.65,22.44-22.8,37.77-28.97,16-6.44,34.59-10.44,55.03-12.73,101.32-13.85,224.43-24.17,422.01-32.43"/>
    </mask>
    <linearGradient id="Unbenannter_Verlauf1" data-name="Unbenannter Verlauf" x1="-789.54" y1="274.29" x2="-400.41" y2="274.29" xlink:href="#Unbenannter_Verlauf"/>
    <mask id="mask-1" x="-789.54" y="142.11" width="389.13" height="264.36" maskUnits="userSpaceOnUse">
      <path class="st4" d="M-779.6,406.46v-124.43c0-37.08,22.05-71.05,56.46-84.88,16-6.44,34.59-10.44,55.03-12.73,100.22-13.72,71.17-12.97,266.72-32.43"/>
    </mask>
  </defs>
  <g id="Ebene_1" class="st25">
    <path class="st20" d="M-759.57,693.17"/>
    <g>
      <path d="M-998.94,275.19c21.12,0,29.04,11.04,29.04,42.72s-8.52,42.96-29.04,42.96-29.04-11.04-29.04-42.96,8.52-42.72,29.04-42.72ZM-998.94,284.79c-13.08,0-17.4,6.36-17.4,33.12s4.32,33.36,17.4,33.36,17.4-6.48,17.4-33.36-4.32-33.12-17.4-33.12Z"/>
      <path class="st23" d="M-915.3,270.15l5.76,6.84c-11.88,12.36-16.2,17.28-16.2,46.56s4.32,34.2,16.2,46.56l-5.76,6.84c-14.4-11.64-21.36-19.8-21.36-53.4s6.96-41.76,21.36-53.4Z"/>
      <path d="M-897.9,273.03l11.04-1.2v75.24c0,4.8,2.76,4.8,5.28,4.8,1.92,0,4.08-.48,5.28-.84l1.68,8.16c-2.76.72-5.76,1.68-10.08,1.68-10.32,0-13.2-4.2-13.2-14.04v-73.8Z"/>
      <path d="M-843.66,296.54c20.04,0,25.56,11.16,25.56,32.04s-6,32.28-25.56,32.28-25.56-11.16-25.56-32.28c0-19.8,6.24-32.04,25.56-32.04ZM-843.66,305.42c-10.8,0-14.16,5.64-14.16,23.16s3.36,23.4,14.16,23.4,14.16-5.64,14.16-23.4-3.36-23.16-14.16-23.16Z"/>
      <path d="M-798.18,356.3c-2.64-1.44-4.08-4.2-4.08-6.96,0-5.28,3.12-9.96,5.76-12.96-9.24-2.88-12.12-9.84-12.12-18.48,0-14.64,8.76-21.36,23.64-21.36,4.56,0,8.28.6,11.4,1.56l19.56-.6v8.64l-12.72-1.32c3,2.64,5.64,6.84,5.64,11.76,0,14.64-8.76,21.36-23.64,21.36-1.68,0-3.36-.12-4.8-.24-1.8,3-2.64,6.36-2.64,8.76,0,2.04,1.2,3.72,3.96,3.72l11.52.24c12.96.24,21.96,3.84,21.96,16.8s-11.88,18.84-30.72,18.84-25.92-5.4-25.92-15.48c0-7.32,4.32-12.12,13.2-14.28ZM-777.66,360.38l-14.52-.48c-4.44,1.2-7.92,3.36-7.92,9.12,0,6.72,6,8.64,16.2,8.64,11.88-.24,18.6-3,18.6-9.36s-3.48-7.68-12.36-7.92ZM-784.86,304.7c-9.84,0-12.84,4.08-12.84,12.6s3,12.48,12.84,12.48,12.84-3.96,12.96-12.48c-.12-8.52-4.32-12.6-12.96-12.6Z"/>
      <path d="M-722.94,359.42v-61.44h10.32l.12,6.12c7.92-5.04,14.4-7.56,21.12-7.56,8.52,0,15.96,5.4,15.96,17.52v45.36h-11.04v-43.8c0-5.76-2.28-9.24-7.92-9.24-6,0-11.88,2.52-17.52,5.76v47.28h-11.04Z"/>
      <path class="st23" d="M-658.38,376.94l-5.76-6.84c11.88-12.36,16.2-17.28,16.2-46.56s-4.32-34.2-16.2-46.56l5.76-6.84c14.4,11.64,21.36,20.88,21.36,53.4s-6.96,41.76-21.36,53.4Z"/>
    </g>
  </g>
  <g id="Ebene_2" class="st25">
    <path class="st9" d="M-953.8,386.06v-92.43c0-20.52,12.2-39.31,31.24-46.96,8.85-3.56,19.14-5.78,30.45-7.04,56.06-7.66,145.77-13.37,255.09-17.94"/>
    <g>
      <path d="M-485.65,267.66c21.12,0,29.04,11.04,29.04,42.72s-8.52,42.96-29.04,42.96-29.04-11.04-29.04-42.96,8.52-42.72,29.04-42.72ZM-485.65,277.26c-13.08,0-17.4,6.36-17.4,33.12s4.32,33.36,17.4,33.36,17.4-6.48,17.4-33.36-4.32-33.12-17.4-33.12Z"/>
      <path class="st23" d="M-402.01,262.62l5.76,6.84c-11.88,12.36-16.2,17.28-16.2,46.56s4.32,34.2,16.2,46.56l-5.76,6.84c-14.4-11.64-21.36-19.8-21.36-53.4s6.96-41.76,21.36-53.4Z"/>
      <path d="M-384.61,265.5l11.04-1.2v75.24c0,4.8,2.76,4.8,5.28,4.8,1.92,0,4.08-.48,5.28-.84l1.68,8.16c-2.76.72-5.76,1.68-10.08,1.68-10.32,0-13.2-4.2-13.2-14.04v-73.8Z"/>
      <path d="M-330.37,289.02c20.04,0,25.56,11.16,25.56,32.04s-6,32.28-25.56,32.28-25.56-11.16-25.56-32.28c0-19.8,6.24-32.04,25.56-32.04ZM-330.37,297.89c-10.8,0-14.16,5.64-14.16,23.16s3.36,23.4,14.16,23.4,14.16-5.64,14.16-23.4-3.36-23.16-14.16-23.16Z"/>
      <path d="M-284.89,348.77c-2.64-1.44-4.08-4.2-4.08-6.96,0-5.28,3.12-9.96,5.76-12.96-9.24-2.88-12.12-9.84-12.12-18.48,0-14.64,8.76-21.36,23.64-21.36,4.56,0,8.28.6,11.4,1.56l19.56-.6v8.64l-12.72-1.32c3,2.64,5.64,6.84,5.64,11.76,0,14.64-8.76,21.36-23.64,21.36-1.68,0-3.36-.12-4.8-.24-1.8,3-2.64,6.36-2.64,8.76,0,2.04,1.2,3.72,3.96,3.72l11.52.24c12.96.24,21.96,3.84,21.96,16.8s-11.88,18.84-30.72,18.84-25.92-5.4-25.92-15.48c0-7.32,4.32-12.12,13.2-14.28ZM-264.37,352.85l-14.52-.48c-4.44,1.2-7.92,3.36-7.92,9.12,0,6.72,6,8.64,16.2,8.64,11.88-.24,18.6-3,18.6-9.36s-3.48-7.68-12.36-7.92ZM-271.57,297.17c-9.84,0-12.84,4.08-12.84,12.6s3,12.48,12.84,12.48,12.84-3.96,12.96-12.48c-.12-8.52-4.32-12.6-12.96-12.6Z"/>
      <path d="M-231.25,351.89v-61.44h10.32l.12,6.12c7.92-5.04,14.4-7.56,21.12-7.56,8.52,0,15.96,5.4,15.96,17.52v45.36h-11.04v-43.8c0-5.76-2.28-9.24-7.92-9.24-6,0-11.88,2.52-17.52,5.76v47.28h-11.04Z"/>
      <path class="st23" d="M-166.69,369.41l-5.76-6.84c11.88-12.36,16.2-17.28,16.2-46.56s-4.32-34.2-16.2-46.56l5.76-6.84c14.4,11.64,21.36,20.88,21.36,53.4s-6.96,41.76-21.36,53.4Z"/>
    </g>
    <path class="st9" d="M-440.5,378.53v-92.43c0-20.52,12.2-39.31,31.24-46.96,8.85-3.56,19.14-5.78,30.45-7.04,56.06-7.66,124.17-13.37,233.49-17.94"/>
    <g>
      <path d="M-946.17,600.01v54c0,6.84-3.36,10.56-11.16,10.56h-13.32c-7.8,0-11.28-3.72-11.28-10.56v-54c0-6.84,3.48-10.56,11.28-10.56h13.32c7.8,0,11.16,3.72,11.16,10.56ZM-956.97,601.69c0-2.88-.72-3.48-3.6-3.48h-6.96c-2.88,0-3.48.6-3.48,3.48v50.64c0,2.88.6,3.48,3.48,3.48h6.96c2.88,0,3.6-.6,3.6-3.48v-50.64Z"/>
      <path class="st23" d="M-890.85,569.29h1.8v9.12l-1.56.12c-11.88.72-15.96,17.16-15.96,40.92v16.08c0,23.76,4.08,40.2,15.96,40.92l1.56.12v9h-1.8c-17.88,0-26.52-18.12-26.52-50.28v-15.72c0-32.04,8.64-50.28,26.52-50.28Z"/>
      <path d="M-886.05,664.57v-80.28h10.8v80.28h-10.8Z"/>
      <path d="M-830.25,616.69v37.32c0,6.84-3.36,10.56-11.16,10.56h-12.84c-7.68,0-11.04-3.72-11.04-10.56v-37.32c0-6.96,3.36-10.68,11.04-10.68h12.84c7.8,0,11.16,3.72,11.16,10.68ZM-840.93,618.13c0-2.88-.72-3.6-3.6-3.6h-6.6c-2.88,0-3.48.72-3.48,3.6v34.32c0,2.88.6,3.6,3.48,3.6h6.6c2.88,0,3.6-.72,3.6-3.6v-34.32Z"/>
      <path d="M-798.45,659.17c-1.08,3.24-3.72,4.68-7.44,4.68h-4.32c-7.44,0-10.8-3.72-10.8-10.68v-36.48c0-6.96,3.36-10.68,10.8-10.68h4.32c3.72,0,6.36,1.44,7.44,4.68v-4.68h10.8v64.56c0,6.96-3.48,10.56-11.28,10.56h-20.04v-8.52h16.92c2.88,0,3.6-.72,3.6-3.48v-9.96ZM-810.21,618.25v33.36c0,2.76.72,3.48,3.6,3.48h4.2c2.76,0,3.96-1.08,3.96-4.2v-31.92c0-3.12-1.2-4.2-3.96-4.2h-4.2c-2.88,0-3.6.6-3.6,3.48Z"/>
      <path d="M-759.7,664.57v-58.56h10.8v4.68c1.08-3.24,3.72-4.68,7.44-4.68h4.2c7.44,0,10.92,3.72,10.92,10.68v47.88h-10.8v-46.32c0-2.88-.72-3.48-3.6-3.48h-4.2c-2.76,0-3.96,1.08-3.96,4.2v45.6h-10.8Z"/>
      <path class="st23" d="M-721.9,685.57h-1.8v-9l1.56-.12c11.88-.72,15.96-17.16,15.96-40.92v-16.08c0-23.76-4.08-40.2-15.96-40.92l-1.56-.12v-9.12h1.8c17.88,0,26.52,18.24,26.52,50.28v15.72c0,32.16-8.64,50.28-26.52,50.28Z"/>
    </g>
    <path class="st8" d="M-931.4,688.2v-92.43c0-20.52,12.2-39.31,31.24-46.96,8.85-3.56,19.14-5.78,30.45-7.04,51.05-6.96,139.2-11.88,174.34-15.14"/>
    <g>
      <path d="M-432.88,592.48v54c0,6.84-3.36,10.56-11.16,10.56h-13.32c-7.8,0-11.28-3.72-11.28-10.56v-54c0-6.84,3.48-10.56,11.28-10.56h13.32c7.8,0,11.16,3.72,11.16,10.56ZM-443.68,594.16c0-2.88-.72-3.48-3.6-3.48h-6.96c-2.88,0-3.48.6-3.48,3.48v50.64c0,2.88.6,3.48,3.48,3.48h6.96c2.88,0,3.6-.6,3.6-3.48v-50.64Z"/>
      <path class="st23" d="M-377.56,561.76h1.8v9.12l-1.56.12c-11.88.72-15.96,17.16-15.96,40.92v16.08c0,23.76,4.08,40.2,15.96,40.92l1.56.12v9h-1.8c-17.88,0-26.52-18.12-26.52-50.28v-15.72c0-32.04,8.64-50.28,26.52-50.28Z"/>
      <path d="M-372.76,657.04v-80.28h10.8v80.28h-10.8Z"/>
      <path d="M-316.96,609.16v37.32c0,6.84-3.36,10.56-11.16,10.56h-12.84c-7.68,0-11.04-3.72-11.04-10.56v-37.32c0-6.96,3.36-10.68,11.04-10.68h12.84c7.8,0,11.16,3.72,11.16,10.68ZM-327.64,610.6c0-2.88-.72-3.6-3.6-3.6h-6.6c-2.88,0-3.48.72-3.48,3.6v34.32c0,2.88.6,3.6,3.48,3.6h6.6c2.88,0,3.6-.72,3.6-3.6v-34.32Z"/>
      <path d="M-285.16,651.64c-1.08,3.24-3.72,4.68-7.44,4.68h-4.32c-7.44,0-10.8-3.72-10.8-10.68v-36.48c0-6.96,3.36-10.68,10.8-10.68h4.32c3.72,0,6.36,1.44,7.44,4.68v-4.68h10.8v64.56c0,6.96-3.48,10.56-11.28,10.56h-20.04v-8.52h16.92c2.88,0,3.6-.72,3.6-3.48v-9.96ZM-296.92,610.72v33.36c0,2.76.72,3.48,3.6,3.48h4.2c2.76,0,3.96-1.08,3.96-4.2v-31.92c0-3.12-1.2-4.2-3.96-4.2h-4.2c-2.88,0-3.6.6-3.6,3.48Z"/>
      <path d="M-263.8,657.04v-58.56h10.8v4.68c1.08-3.24,3.72-4.68,7.44-4.68h4.2c7.44,0,10.92,3.72,10.92,10.68v47.88h-10.8v-46.32c0-2.88-.72-3.48-3.6-3.48h-4.2c-2.76,0-3.96,1.08-3.96,4.2v45.6h-10.8Z"/>
      <path class="st23" d="M-226,678.04h-1.8v-9l1.56-.12c11.88-.72,15.96-17.16,15.96-40.92v-16.08c0-23.76-4.08-40.2-15.96-40.92l-1.56-.12v-9.12h1.8c17.88,0,26.52,18.24,26.52,50.28v15.72c0,32.16-8.64,50.28-26.52,50.28Z"/>
    </g>
    <path class="st8" d="M-418.34,678.27v-92.43c0-20.52,12.2-39.31,31.24-46.96,8.85-3.56,19.14-5.78,30.45-7.04,51.05-6.96,121.03-10.89,157.17-13.71"/>
    <rect class="st2" x="-830.59" y="861.55" width="170.1" height="170.1"/>
    <rect class="st13" x="-653.55" y="861.55" width="170.1" height="170.1"/>
    <rect class="st15" x="-477.13" y="861.55" width="170.1" height="170.1"/>
    <text class="st16" transform="translate(-796.53 954.51)"><tspan x="0" y="0">#53d000</tspan></text>
    <text class="st16" transform="translate(-615.77 952.64)"><tspan x="0" y="0">#89e051</tspan></text>
    <text class="st16" transform="translate(-442.77 953.78)"><tspan x="0" y="0">#bded9d</tspan></text>
  </g>
  <g id="Ebene_4" class="st25">
    <g>
      <path d="M-1000.99,438.44c21.12,0,29.04,11.04,29.04,42.72s-8.52,42.96-29.04,42.96-29.04-11.04-29.04-42.96,8.52-42.72,29.04-42.72ZM-1000.99,448.04c-13.08,0-17.4,6.36-17.4,33.12s4.32,33.36,17.4,33.36,17.4-6.48,17.4-33.36-4.32-33.12-17.4-33.12Z"/>
      <path class="st22" d="M-939.38,433.4l5.76,6.84c-11.88,12.36-16.2,17.28-16.2,46.56s4.32,34.2,16.2,46.56l-5.76,6.84c-14.4-11.64-21.36-19.8-21.36-53.4s6.96-41.76,21.36-53.4Z"/>
      <path d="M-921.98,436.28l11.04-1.2v75.24c0,4.8,2.76,4.8,5.28,4.8,1.92,0,4.08-.48,5.28-.84l1.68,8.16c-2.76.72-5.76,1.68-10.08,1.68-10.32,0-13.2-4.2-13.2-14.04v-73.8Z"/>
      <path d="M-867.74,459.8c20.04,0,25.56,11.16,25.56,32.04s-6,32.28-25.56,32.28-25.56-11.16-25.56-32.28c0-19.8,6.24-32.04,25.56-32.04ZM-867.74,468.68c-10.8,0-14.16,5.64-14.16,23.16s3.36,23.4,14.16,23.4,14.16-5.64,14.16-23.4-3.36-23.16-14.16-23.16Z"/>
      <path d="M-822.26,519.56c-2.64-1.44-4.08-4.2-4.08-6.96,0-5.28,3.12-9.96,5.76-12.96-9.24-2.88-12.12-9.84-12.12-18.48,0-14.64,8.76-21.36,23.64-21.36,4.56,0,8.28.6,11.4,1.56l19.56-.6v8.64l-12.72-1.32c3,2.64,5.64,6.84,5.64,11.76,0,14.64-8.76,21.36-23.64,21.36-1.68,0-3.36-.12-4.8-.24-1.8,3-2.64,6.36-2.64,8.76,0,2.04,1.2,3.72,3.96,3.72l11.52.24c12.96.24,21.96,3.84,21.96,16.8s-11.88,18.84-30.72,18.84-25.92-5.4-25.92-15.48c0-7.32,4.32-12.12,13.2-14.28ZM-801.74,523.64l-14.52-.48c-4.44,1.2-7.92,3.36-7.92,9.12,0,6.72,6,8.64,16.2,8.64,11.88-.24,18.6-3,18.6-9.36s-3.48-7.68-12.36-7.92ZM-808.94,467.96c-9.84,0-12.84,4.08-12.84,12.6s3,12.48,12.84,12.48,12.84-3.96,12.96-12.48c-.12-8.52-4.32-12.6-12.96-12.6Z"/>
      <path d="M-768.62,522.68v-61.44h10.32l.12,6.12c7.92-5.04,14.4-7.56,21.12-7.56,8.52,0,15.96,5.4,15.96,17.52v45.36h-11.04v-43.8c0-5.76-2.28-9.24-7.92-9.24-6,0-11.88,2.52-17.52,5.76v47.28h-11.04Z"/>
      <path class="st22" d="M-704.06,540.2l-5.76-6.84c11.88-12.36,16.2-17.28,16.2-46.56s-4.32-34.2-16.2-46.56l5.76-6.84c14.4,11.64,21.36,20.88,21.36,53.4s-6.96,41.76-21.36,53.4Z"/>
    </g>
    <path class="st10" d="M-1040.96,596.84c6.86-8.22,16.73-14.83,28.76-18.66,11.19-3.56,24.18-5.78,38.47-7.04,70.84-7.66,156.9-13.37,295.04-17.94"/>
    <g>
      <path d="M-1003.35,733.81c21.12,0,29.04,11.04,29.04,42.72s-8.52,42.96-29.04,42.96-29.04-11.04-29.04-42.96,8.52-42.72,29.04-42.72ZM-1003.35,743.41c-13.08,0-17.4,6.36-17.4,33.12s4.32,33.36,17.4,33.36,17.4-6.48,17.4-33.36-4.32-33.12-17.4-33.12Z"/>
      <path class="st2" d="M-924.89,728.77l5.76,6.84c-11.88,12.36-16.2,17.28-16.2,46.56s4.32,34.2,16.2,46.56l-5.76,6.84c-14.4-11.64-21.36-19.8-21.36-53.4s6.96-41.76,21.36-53.4Z"/>
      <path d="M-902.31,731.65l11.04-1.2v75.24c0,4.8,2.76,4.8,5.28,4.8,1.92,0,4.08-.48,5.28-.84l1.68,8.16c-2.76.72-5.76,1.68-10.08,1.68-10.32,0-13.2-4.2-13.2-14.04v-73.8Z"/>
      <path d="M-848.07,755.17c20.04,0,25.56,11.16,25.56,32.04s-6,32.28-25.56,32.28-25.56-11.16-25.56-32.28c0-19.8,6.24-32.04,25.56-32.04ZM-848.07,764.05c-10.8,0-14.16,5.64-14.16,23.16s3.36,23.4,14.16,23.4,14.16-5.64,14.16-23.4-3.36-23.16-14.16-23.16Z"/>
      <path d="M-802.59,814.93c-2.64-1.44-4.08-4.2-4.08-6.96,0-5.28,3.12-9.96,5.76-12.96-9.24-2.88-12.12-9.84-12.12-18.48,0-14.64,8.76-21.36,23.64-21.36,4.56,0,8.28.6,11.4,1.56l19.56-.6v8.64l-12.72-1.32c3,2.64,5.64,6.84,5.64,11.76,0,14.64-8.76,21.36-23.64,21.36-1.68,0-3.36-.12-4.8-.24-1.8,3-2.64,6.36-2.64,8.76,0,2.04,1.2,3.72,3.96,3.72l11.52.24c12.96.24,21.96,3.84,21.96,16.8s-11.88,18.84-30.72,18.84-25.92-5.4-25.92-15.48c0-7.32,4.32-12.12,13.2-14.28ZM-782.07,819.01l-14.52-.48c-4.44,1.2-7.92,3.36-7.92,9.12,0,6.72,6,8.64,16.2,8.64,11.88-.24,18.6-3,18.6-9.36s-3.48-7.68-12.36-7.92ZM-789.27,763.33c-9.84,0-12.84,4.08-12.84,12.6s3,12.48,12.84,12.48,12.84-3.96,12.96-12.48c-.12-8.52-4.32-12.6-12.96-12.6Z"/>
      <path d="M-748.95,818.05v-61.44h10.32l.12,6.12c7.92-5.04,14.4-7.56,21.12-7.56,8.52,0,15.96,5.4,15.96,17.52v45.36h-11.04v-43.8c0-5.76-2.28-9.24-7.92-9.24-6,0-11.88,2.52-17.52,5.76v47.28h-11.04Z"/>
      <path class="st2" d="M-678.69,835.11l-5.76-6.84c11.88-12.36,16.2-17.28,16.2-46.56s-4.32-34.2-16.2-46.56l5.76-6.84c14.4,11.64,21.36,20.88,21.36,53.4s-6.96,41.76-21.36,53.4Z"/>
    </g>
    <path class="st9" d="M-940.55,775.73c0-23.48,11.2-41.31,30.24-48.96,8.85-3.56,19.14-5.78,30.45-7.04,56.06-7.66,124.17-13.37,233.49-17.94"/>
    <g>
      <path d="M-493.36,439.27c21.12,0,29.04,11.04,29.04,42.72s-8.52,42.96-29.04,42.96-29.04-11.04-29.04-42.96,8.52-42.72,29.04-42.72ZM-493.36,448.87c-13.08,0-17.4,6.36-17.4,33.12s4.32,33.36,17.4,33.36,17.4-6.48,17.4-33.36-4.32-33.12-17.4-33.12Z"/>
      <path class="st22" d="M-409.72,434.23l5.76,6.84c-11.88,12.36-16.2,17.28-16.2,46.56s4.32,34.2,16.2,46.56l-5.76,6.84c-14.4-11.64-21.36-19.8-21.36-53.4s6.96-41.76,21.36-53.4Z"/>
      <path d="M-392.32,437.11l11.04-1.2v75.24c0,4.8,2.76,4.8,5.28,4.8,1.92,0,4.08-.48,5.28-.84l1.68,8.16c-2.76.72-5.76,1.68-10.08,1.68-10.32,0-13.2-4.2-13.2-14.04v-73.8Z"/>
      <path d="M-338.08,460.63c20.04,0,25.56,11.16,25.56,32.04s-6,32.28-25.56,32.28-25.56-11.16-25.56-32.28c0-19.8,6.24-32.04,25.56-32.04ZM-338.08,469.51c-10.8,0-14.16,5.64-14.16,23.16s3.36,23.4,14.16,23.4,14.16-5.64,14.16-23.4-3.36-23.16-14.16-23.16Z"/>
      <path d="M-292.6,520.39c-2.64-1.44-4.08-4.2-4.08-6.96,0-5.28,3.12-9.96,5.76-12.96-9.24-2.88-12.12-9.84-12.12-18.48,0-14.64,8.76-21.36,23.64-21.36,4.56,0,8.28.6,11.4,1.56l19.56-.6v8.64l-12.72-1.32c3,2.64,5.64,6.84,5.64,11.76,0,14.64-8.76,21.36-23.64,21.36-1.68,0-3.36-.12-4.8-.24-1.8,3-2.64,6.36-2.64,8.76,0,2.04,1.2,3.72,3.96,3.72l11.52.24c12.96.24,21.96,3.84,21.96,16.8s-11.88,18.84-30.72,18.84-25.92-5.4-25.92-15.48c0-7.32,4.32-12.12,13.2-14.28ZM-272.08,524.47l-14.52-.48c-4.44,1.2-7.92,3.36-7.92,9.12,0,6.72,6,8.64,16.2,8.64,11.88-.24,18.6-3,18.6-9.36s-3.48-7.68-12.36-7.92ZM-279.28,468.79c-9.84,0-12.84,4.08-12.84,12.6s3,12.48,12.84,12.48,12.84-3.96,12.96-12.48c-.12-8.52-4.32-12.6-12.96-12.6Z"/>
      <path d="M-238.96,523.51v-61.44h10.32l.12,6.12c7.92-5.04,14.4-7.56,21.12-7.56,8.52,0,15.96,5.4,15.96,17.52v45.36h-11.04v-43.8c0-5.76-2.28-9.24-7.92-9.24-6,0-11.88,2.52-17.52,5.76v47.28h-11.04Z"/>
      <path class="st22" d="M-174.4,541.03l-5.76-6.84c11.88-12.36,16.2-17.28,16.2-46.56s-4.32-34.2-16.2-46.56l5.76-6.84c14.4,11.64,21.36,20.88,21.36,53.4s-6.96,41.76-21.36,53.4Z"/>
    </g>
    <path class="st9" d="M-437.87,426.78c5.29-7,12.42-12.62,20.9-16.03,8.85-3.56,19.14-5.78,30.45-7.04,56.06-7.66,124.17-13.37,233.49-17.94"/>
    <g>
      <path d="M-1003.31,204.23c21.12,0,29.04,11.04,29.04,42.72s-8.52,42.96-29.04,42.96-29.04-11.04-29.04-42.96,8.52-42.72,29.04-42.72ZM-1003.31,213.83c-13.08,0-17.4,6.36-17.4,33.12s4.32,33.36,17.4,33.36,17.4-6.48,17.4-33.36-4.32-33.12-17.4-33.12Z"/>
      <path class="st22" d="M-919.67,199.19l5.76,6.84c-11.88,12.36-16.2,17.28-16.2,46.56s4.32,34.2,16.2,46.56l-5.76,6.84c-14.4-11.64-21.36-19.8-21.36-53.4s6.96-41.76,21.36-53.4Z"/>
      <path d="M-902.27,202.07l11.04-1.2v75.24c0,4.8,2.76,4.8,5.28,4.8,1.92,0,4.08-.48,5.28-.84l1.68,8.16c-2.76.72-5.76,1.68-10.08,1.68-10.32,0-13.2-4.2-13.2-14.04v-73.8Z"/>
      <path d="M-848.03,225.59c20.04,0,25.56,11.16,25.56,32.04s-6,32.28-25.56,32.28-25.56-11.16-25.56-32.28c0-19.8,6.24-32.04,25.56-32.04ZM-848.03,234.47c-10.8,0-14.16,5.64-14.16,23.16s3.36,23.4,14.16,23.4,14.16-5.64,14.16-23.4-3.36-23.16-14.16-23.16Z"/>
      <path d="M-802.55,285.35c-2.64-1.44-4.08-4.2-4.08-6.96,0-5.28,3.12-9.96,5.76-12.96-9.24-2.88-12.12-9.84-12.12-18.48,0-14.64,8.76-21.36,23.64-21.36,4.56,0,8.28.6,11.4,1.56l19.56-.6v8.64l-12.72-1.32c3,2.64,5.64,6.84,5.64,11.76,0,14.64-8.76,21.36-23.64,21.36-1.68,0-3.36-.12-4.8-.24-1.8,3-2.64,6.36-2.64,8.76,0,2.04,1.2,3.72,3.96,3.72l11.52.24c12.96.24,21.96,3.84,21.96,16.8s-11.88,18.84-30.72,18.84-25.92-5.4-25.92-15.48c0-7.32,4.32-12.12,13.2-14.28ZM-782.03,289.43l-14.52-.48c-4.44,1.2-7.92,3.36-7.92,9.12,0,6.72,6,8.64,16.2,8.64,11.88-.24,18.6-3,18.6-9.36s-3.48-7.68-12.36-7.92ZM-789.23,233.75c-9.84,0-12.84,4.08-12.84,12.6s3,12.48,12.84,12.48,12.84-3.96,12.96-12.48c-.12-8.52-4.32-12.6-12.96-12.6Z"/>
      <path d="M-748.91,288.47v-61.44h10.32l.12,6.12c7.92-5.04,14.4-7.56,21.12-7.56,8.52,0,15.96,5.4,15.96,17.52v45.36h-11.04v-43.8c0-5.76-2.28-9.24-7.92-9.24-6,0-11.88,2.52-17.52,5.76v47.28h-11.04Z"/>
      <path class="st22" d="M-684.35,305.99l-5.76-6.84c11.88-12.36,16.2-17.28,16.2-46.56s-4.32-34.2-16.2-46.56l5.76-6.84c14.4,11.64,21.36,20.88,21.36,53.4s-6.96,41.76-21.36,53.4Z"/>
    </g>
    <path class="st9" d="M-958.95,315.11v-92.43c0-20.52,12.2-39.31,31.24-46.96,8.85-3.56,19.14-5.78,30.45-7.04,56.06-7.66,124.17-13.37,233.49-17.94"/>
    <g>
      <path d="M-491.23,204.23c21.12,0,29.04,11.04,29.04,42.72s-8.52,42.96-29.04,42.96-29.04-11.04-29.04-42.96,8.52-42.72,29.04-42.72ZM-491.23,213.83c-13.08,0-17.4,6.36-17.4,33.12s4.32,33.36,17.4,33.36,17.4-6.48,17.4-33.36-4.32-33.12-17.4-33.12Z"/>
      <path class="st22" d="M-407.59,199.19l5.76,6.84c-11.88,12.36-16.2,17.28-16.2,46.56s4.32,34.2,16.2,46.56l-5.76,6.84c-14.4-11.64-21.36-19.8-21.36-53.4s6.96-41.76,21.36-53.4Z"/>
      <path d="M-390.19,202.07l11.04-1.2v75.24c0,4.8,2.76,4.8,5.28,4.8,1.92,0,4.08-.48,5.28-.84l1.68,8.16c-2.76.72-5.76,1.68-10.08,1.68-10.32,0-13.2-4.2-13.2-14.04v-73.8Z"/>
      <path d="M-335.95,225.59c20.04,0,25.56,11.16,25.56,32.04s-6,32.28-25.56,32.28-25.56-11.16-25.56-32.28c0-19.8,6.24-32.04,25.56-32.04ZM-335.95,234.47c-10.8,0-14.16,5.64-14.16,23.16s3.36,23.4,14.16,23.4,14.16-5.64,14.16-23.4-3.36-23.16-14.16-23.16Z"/>
      <path d="M-290.47,285.35c-2.64-1.44-4.08-4.2-4.08-6.96,0-5.28,3.12-9.96,5.76-12.96-9.24-2.88-12.12-9.84-12.12-18.48,0-14.64,8.76-21.36,23.64-21.36,4.56,0,8.28.6,11.4,1.56l19.56-.6v8.64l-12.72-1.32c3,2.64,5.64,6.84,5.64,11.76,0,14.64-8.76,21.36-23.64,21.36-1.68,0-3.36-.12-4.8-.24-1.8,3-2.64,6.36-2.64,8.76,0,2.04,1.2,3.72,3.96,3.72l11.52.24c12.96.24,21.96,3.84,21.96,16.8s-11.88,18.84-30.72,18.84-25.92-5.4-25.92-15.48c0-7.32,4.32-12.12,13.2-14.28ZM-269.95,289.43l-14.52-.48c-4.44,1.2-7.92,3.36-7.92,9.12,0,6.72,6,8.64,16.2,8.64,11.88-.24,18.6-3,18.6-9.36s-3.48-7.68-12.36-7.92ZM-277.15,233.75c-9.84,0-12.84,4.08-12.84,12.6s3,12.48,12.84,12.48,12.84-3.96,12.96-12.48c-.12-8.52-4.32-12.6-12.96-12.6Z"/>
      <path d="M-236.83,288.47v-61.44h10.32l.12,6.12c7.92-5.04,14.4-7.56,21.12-7.56,8.52,0,15.96,5.4,15.96,17.52v45.36h-11.04v-43.8c0-5.76-2.28-9.24-7.92-9.24-6,0-11.88,2.52-17.52,5.76v47.28h-11.04Z"/>
      <path class="st22" d="M-172.27,305.99l-5.76-6.84c11.88-12.36,16.2-17.28,16.2-46.56s-4.32-34.2-16.2-46.56l5.76-6.84c14.4,11.64,21.36,20.88,21.36,53.4s-6.96,41.76-21.36,53.4Z"/>
    </g>
    <path class="st9" d="M-448.21,291.52v-68.84c0-20.52,12.2-39.31,31.24-46.96,8.85-3.56,19.14-5.78,30.45-7.04,55.45-7.59,39.38-7.18,147.57-17.94"/>
    <g>
      <path class="st2" d="M-475.6,735.42c21.12,0,29.04,11.04,29.04,42.72s-8.52,42.96-29.04,42.96-29.04-11.04-29.04-42.96,8.52-42.72,29.04-42.72ZM-475.6,745.02c-13.08,0-17.4,6.36-17.4,33.12s4.32,33.36,17.4,33.36,17.4-6.48,17.4-33.36-4.32-33.12-17.4-33.12Z"/>
      <path class="st22" d="M-409.36,730.38l5.76,6.84c-11.88,12.36-16.2,17.28-16.2,46.56s4.32,34.2,16.2,46.56l-5.76,6.84c-14.4-11.64-21.36-19.8-21.36-53.4s6.96-41.76,21.36-53.4Z"/>
      <path d="M-391.96,733.26l11.04-1.2v75.24c0,4.8,2.76,4.8,5.28,4.8,1.92,0,4.08-.48,5.28-.84l1.68,8.16c-2.76.72-5.76,1.68-10.08,1.68-10.32,0-13.2-4.2-13.2-14.04v-73.8Z"/>
      <path d="M-337.72,756.78c20.04,0,25.56,11.16,25.56,32.04s-6,32.28-25.56,32.28-25.56-11.16-25.56-32.28c0-19.8,6.24-32.04,25.56-32.04ZM-337.72,765.66c-10.8,0-14.16,5.64-14.16,23.16s3.36,23.4,14.16,23.4,14.16-5.64,14.16-23.4-3.36-23.16-14.16-23.16Z"/>
      <path d="M-292.24,816.53c-2.64-1.44-4.08-4.2-4.08-6.96,0-5.28,3.12-9.96,5.76-12.96-9.24-2.88-12.12-9.84-12.12-18.48,0-14.64,8.76-21.36,23.64-21.36,4.56,0,8.28.6,11.4,1.56l19.56-.6v8.64l-12.72-1.32c3,2.64,5.64,6.84,5.64,11.76,0,14.64-8.76,21.36-23.64,21.36-1.68,0-3.36-.12-4.8-.24-1.8,3-2.64,6.36-2.64,8.76,0,2.04,1.2,3.72,3.96,3.72l11.52.24c12.96.24,21.96,3.84,21.96,16.8s-11.88,18.84-30.72,18.84-25.92-5.4-25.92-15.48c0-7.32,4.32-12.12,13.2-14.28ZM-271.72,820.61l-14.52-.48c-4.44,1.2-7.92,3.36-7.92,9.12,0,6.72,6,8.64,16.2,8.64,11.88-.24,18.6-3,18.6-9.36s-3.48-7.68-12.36-7.92ZM-278.92,764.94c-9.84,0-12.84,4.08-12.84,12.6s3,12.48,12.84,12.48,12.84-3.96,12.96-12.48c-.12-8.52-4.32-12.6-12.96-12.6Z"/>
      <path d="M-238.6,819.65v-61.44h10.32l.12,6.12c7.92-5.04,14.4-7.56,21.12-7.56,8.52,0,15.96,5.4,15.96,17.52v45.36h-11.04v-43.8c0-5.76-2.28-9.24-7.92-9.24-6,0-11.88,2.52-17.52,5.76v47.28h-11.04Z"/>
      <path class="st22" d="M-174.04,837.17l-5.76-6.84c11.88-12.36,16.2-17.28,16.2-46.56s-4.32-34.2-16.2-46.56l5.76-6.84c14.4,11.64,21.36,20.88,21.36,53.4s-6.96,41.76-21.36,53.4Z"/>
    </g>
    <path class="st9" d="M-498.63,792.11v-17.36c.71-20.05,1.51-29.84,21.04-36.14,9.88-3.19,35.4-13.25,46.88-16.09,55.62-16.66,128.7-13.78,239.64-16.09"/>
    <text class="st14" transform="translate(-870.74 334.29)"><tspan x="0" y="0">Original</tspan></text>
    <text class="st14" transform="translate(-355.33 334.72)"><tspan x="0" y="0">Kürzer</tspan></text>
    <text class="st14" transform="translate(-890.54 589.15)"><tspan x="0" y="0">Aktzent Unten</tspan></text>
    <text class="st14" transform="translate(-375.76 589.59)"><tspan x="0" y="0">Aktzent Oben</tspan></text>
    <text class="st14" transform="translate(-872.66 877.52)"><tspan x="0" y="0">Akzent 1</tspan></text>
    <text class="st14" transform="translate(-361.14 877.95)"><tspan x="0" y="0">Akzent 2</tspan></text>
  </g>
  <g id="Ebene_4_Kopie" class="st25">
    <g>
      <path d="M-1000.99,438.44c21.12,0,29.04,11.04,29.04,42.72s-8.52,42.96-29.04,42.96-29.04-11.04-29.04-42.96,8.52-42.72,29.04-42.72ZM-1000.99,448.04c-13.08,0-17.4,6.36-17.4,33.12s4.32,33.36,17.4,33.36,17.4-6.48,17.4-33.36-4.32-33.12-17.4-33.12Z"/>
      <path class="st22" d="M-939.38,433.4l5.76,6.84c-11.88,12.36-16.2,17.28-16.2,46.56s4.32,34.2,16.2,46.56l-5.76,6.84c-14.4-11.64-21.36-19.8-21.36-53.4s6.96-41.76,21.36-53.4Z"/>
      <path d="M-921.98,436.28l11.04-1.2v75.24c0,4.8,2.76,4.8,5.28,4.8,1.92,0,4.08-.48,5.28-.84l1.68,8.16c-2.76.72-5.76,1.68-10.08,1.68-10.32,0-13.2-4.2-13.2-14.04v-73.8Z"/>
      <path d="M-867.74,459.8c20.04,0,25.56,11.16,25.56,32.04s-6,32.28-25.56,32.28-25.56-11.16-25.56-32.28c0-19.8,6.24-32.04,25.56-32.04ZM-867.74,468.68c-10.8,0-14.16,5.64-14.16,23.16s3.36,23.4,14.16,23.4,14.16-5.64,14.16-23.4-3.36-23.16-14.16-23.16Z"/>
      <path d="M-822.26,519.56c-2.64-1.44-4.08-4.2-4.08-6.96,0-5.28,3.12-9.96,5.76-12.96-9.24-2.88-12.12-9.84-12.12-18.48,0-14.64,8.76-21.36,23.64-21.36,4.56,0,8.28.6,11.4,1.56l19.56-.6v8.64l-12.72-1.32c3,2.64,5.64,6.84,5.64,11.76,0,14.64-8.76,21.36-23.64,21.36-1.68,0-3.36-.12-4.8-.24-1.8,3-2.64,6.36-2.64,8.76,0,2.04,1.2,3.72,3.96,3.72l11.52.24c12.96.24,21.96,3.84,21.96,16.8s-11.88,18.84-30.72,18.84-25.92-5.4-25.92-15.48c0-7.32,4.32-12.12,13.2-14.28ZM-801.74,523.64l-14.52-.48c-4.44,1.2-7.92,3.36-7.92,9.12,0,6.72,6,8.64,16.2,8.64,11.88-.24,18.6-3,18.6-9.36s-3.48-7.68-12.36-7.92ZM-808.94,467.96c-9.84,0-12.84,4.08-12.84,12.6s3,12.48,12.84,12.48,12.84-3.96,12.96-12.48c-.12-8.52-4.32-12.6-12.96-12.6Z"/>
      <path d="M-768.62,522.68v-61.44h10.32l.12,6.12c7.92-5.04,14.4-7.56,21.12-7.56,8.52,0,15.96,5.4,15.96,17.52v45.36h-11.04v-43.8c0-5.76-2.28-9.24-7.92-9.24-6,0-11.88,2.52-17.52,5.76v47.28h-11.04Z"/>
      <path class="st22" d="M-704.06,540.2l-5.76-6.84c11.88-12.36,16.2-17.28,16.2-46.56s-4.32-34.2-16.2-46.56l5.76-6.84c14.4,11.64,21.36,20.88,21.36,53.4s-6.96,41.76-21.36,53.4Z"/>
    </g>
    <path class="st3" d="M-1040.96,596.84c6.86-8.22,16.73-14.83,28.76-18.66,11.19-3.56,24.18-5.78,38.47-7.04,70.84-7.66,156.9-13.37,295.04-17.94"/>
    <g>
      <path d="M-1003.35,733.81c21.12,0,29.04,11.04,29.04,42.72s-8.52,42.96-29.04,42.96-29.04-11.04-29.04-42.96,8.52-42.72,29.04-42.72ZM-1003.35,743.41c-13.08,0-17.4,6.36-17.4,33.12s4.32,33.36,17.4,33.36,17.4-6.48,17.4-33.36-4.32-33.12-17.4-33.12Z"/>
      <path class="st24" d="M-924.89,728.77l5.76,6.84c-11.88,12.36-16.2,17.28-16.2,46.56s4.32,34.2,16.2,46.56l-5.76,6.84c-14.4-11.64-21.36-19.8-21.36-53.4s6.96-41.76,21.36-53.4Z"/>
      <path d="M-902.31,731.65l11.04-1.2v75.24c0,4.8,2.76,4.8,5.28,4.8,1.92,0,4.08-.48,5.28-.84l1.68,8.16c-2.76.72-5.76,1.68-10.08,1.68-10.32,0-13.2-4.2-13.2-14.04v-73.8Z"/>
      <path d="M-848.07,755.17c20.04,0,25.56,11.16,25.56,32.04s-6,32.28-25.56,32.28-25.56-11.16-25.56-32.28c0-19.8,6.24-32.04,25.56-32.04ZM-848.07,764.05c-10.8,0-14.16,5.64-14.16,23.16s3.36,23.4,14.16,23.4,14.16-5.64,14.16-23.4-3.36-23.16-14.16-23.16Z"/>
      <path d="M-802.59,814.93c-2.64-1.44-4.08-4.2-4.08-6.96,0-5.28,3.12-9.96,5.76-12.96-9.24-2.88-12.12-9.84-12.12-18.48,0-14.64,8.76-21.36,23.64-21.36,4.56,0,8.28.6,11.4,1.56l19.56-.6v8.64l-12.72-1.32c3,2.64,5.64,6.84,5.64,11.76,0,14.64-8.76,21.36-23.64,21.36-1.68,0-3.36-.12-4.8-.24-1.8,3-2.64,6.36-2.64,8.76,0,2.04,1.2,3.72,3.96,3.72l11.52.24c12.96.24,21.96,3.84,21.96,16.8s-11.88,18.84-30.72,18.84-25.92-5.4-25.92-15.48c0-7.32,4.32-12.12,13.2-14.28ZM-782.07,819.01l-14.52-.48c-4.44,1.2-7.92,3.36-7.92,9.12,0,6.72,6,8.64,16.2,8.64,11.88-.24,18.6-3,18.6-9.36s-3.48-7.68-12.36-7.92ZM-789.27,763.33c-9.84,0-12.84,4.08-12.84,12.6s3,12.48,12.84,12.48,12.84-3.96,12.96-12.48c-.12-8.52-4.32-12.6-12.96-12.6Z"/>
      <path d="M-748.95,818.05v-61.44h10.32l.12,6.12c7.92-5.04,14.4-7.56,21.12-7.56,8.52,0,15.96,5.4,15.96,17.52v45.36h-11.04v-43.8c0-5.76-2.28-9.24-7.92-9.24-6,0-11.88,2.52-17.52,5.76v47.28h-11.04Z"/>
      <path class="st24" d="M-678.69,835.11l-5.76-6.84c11.88-12.36,16.2-17.28,16.2-46.56s-4.32-34.2-16.2-46.56l5.76-6.84c14.4,11.64,21.36,20.88,21.36,53.4s-6.96,41.76-21.36,53.4Z"/>
    </g>
    <path class="st5" d="M-940.55,775.73c0-23.48,11.2-41.31,30.24-48.96,8.85-3.56,19.14-5.78,30.45-7.04,56.06-7.66,124.17-13.37,233.49-17.94"/>
    <g>
      <path d="M-493.36,439.27c21.12,0,29.04,11.04,29.04,42.72s-8.52,42.96-29.04,42.96-29.04-11.04-29.04-42.96,8.52-42.72,29.04-42.72ZM-493.36,448.87c-13.08,0-17.4,6.36-17.4,33.12s4.32,33.36,17.4,33.36,17.4-6.48,17.4-33.36-4.32-33.12-17.4-33.12Z"/>
      <path class="st21" d="M-409.72,434.23l5.76,6.84c-11.88,12.36-16.2,17.28-16.2,46.56s4.32,34.2,16.2,46.56l-5.76,6.84c-14.4-11.64-21.36-19.8-21.36-53.4s6.96-41.76,21.36-53.4Z"/>
      <path d="M-392.32,437.11l11.04-1.2v75.24c0,4.8,2.76,4.8,5.28,4.8,1.92,0,4.08-.48,5.28-.84l1.68,8.16c-2.76.72-5.76,1.68-10.08,1.68-10.32,0-13.2-4.2-13.2-14.04v-73.8Z"/>
      <path d="M-338.08,460.63c20.04,0,25.56,11.16,25.56,32.04s-6,32.28-25.56,32.28-25.56-11.16-25.56-32.28c0-19.8,6.24-32.04,25.56-32.04ZM-338.08,469.51c-10.8,0-14.16,5.64-14.16,23.16s3.36,23.4,14.16,23.4,14.16-5.64,14.16-23.4-3.36-23.16-14.16-23.16Z"/>
      <path d="M-292.6,520.39c-2.64-1.44-4.08-4.2-4.08-6.96,0-5.28,3.12-9.96,5.76-12.96-9.24-2.88-12.12-9.84-12.12-18.48,0-14.64,8.76-21.36,23.64-21.36,4.56,0,8.28.6,11.4,1.56l19.56-.6v8.64l-12.72-1.32c3,2.64,5.64,6.84,5.64,11.76,0,14.64-8.76,21.36-23.64,21.36-1.68,0-3.36-.12-4.8-.24-1.8,3-2.64,6.36-2.64,8.76,0,2.04,1.2,3.72,3.96,3.72l11.52.24c12.96.24,21.96,3.84,21.96,16.8s-11.88,18.84-30.72,18.84-25.92-5.4-25.92-15.48c0-7.32,4.32-12.12,13.2-14.28ZM-272.08,524.47l-14.52-.48c-4.44,1.2-7.92,3.36-7.92,9.12,0,6.72,6,8.64,16.2,8.64,11.88-.24,18.6-3,18.6-9.36s-3.48-7.68-12.36-7.92ZM-279.28,468.79c-9.84,0-12.84,4.08-12.84,12.6s3,12.48,12.84,12.48,12.84-3.96,12.96-12.48c-.12-8.52-4.32-12.6-12.96-12.6Z"/>
      <path d="M-238.96,523.51v-61.44h10.32l.12,6.12c7.92-5.04,14.4-7.56,21.12-7.56,8.52,0,15.96,5.4,15.96,17.52v45.36h-11.04v-43.8c0-5.76-2.28-9.24-7.92-9.24-6,0-11.88,2.52-17.52,5.76v47.28h-11.04Z"/>
      <path class="st21" d="M-174.4,541.03l-5.76-6.84c11.88-12.36,16.2-17.28,16.2-46.56s-4.32-34.2-16.2-46.56l5.76-6.84c14.4,11.64,21.36,20.88,21.36,53.4s-6.96,41.76-21.36,53.4Z"/>
    </g>
    <path class="st5" d="M-437.87,426.78c5.29-7,12.42-12.62,20.9-16.03,8.85-3.56,19.14-5.78,30.45-7.04,56.06-7.66,124.17-13.37,233.49-17.94"/>
    <g>
      <path d="M-1003.31,204.23c21.12,0,29.04,11.04,29.04,42.72s-8.52,42.96-29.04,42.96-29.04-11.04-29.04-42.96,8.52-42.72,29.04-42.72ZM-1003.31,213.83c-13.08,0-17.4,6.36-17.4,33.12s4.32,33.36,17.4,33.36,17.4-6.48,17.4-33.36-4.32-33.12-17.4-33.12Z"/>
      <path class="st22" d="M-919.67,199.19l5.76,6.84c-11.88,12.36-16.2,17.28-16.2,46.56s4.32,34.2,16.2,46.56l-5.76,6.84c-14.4-11.64-21.36-19.8-21.36-53.4s6.96-41.76,21.36-53.4Z"/>
      <path d="M-902.27,202.07l11.04-1.2v75.24c0,4.8,2.76,4.8,5.28,4.8,1.92,0,4.08-.48,5.28-.84l1.68,8.16c-2.76.72-5.76,1.68-10.08,1.68-10.32,0-13.2-4.2-13.2-14.04v-73.8Z"/>
      <path d="M-848.03,225.59c20.04,0,25.56,11.16,25.56,32.04s-6,32.28-25.56,32.28-25.56-11.16-25.56-32.28c0-19.8,6.24-32.04,25.56-32.04ZM-848.03,234.47c-10.8,0-14.16,5.64-14.16,23.16s3.36,23.4,14.16,23.4,14.16-5.64,14.16-23.4-3.36-23.16-14.16-23.16Z"/>
      <path d="M-802.55,285.35c-2.64-1.44-4.08-4.2-4.08-6.96,0-5.28,3.12-9.96,5.76-12.96-9.24-2.88-12.12-9.84-12.12-18.48,0-14.64,8.76-21.36,23.64-21.36,4.56,0,8.28.6,11.4,1.56l19.56-.6v8.64l-12.72-1.32c3,2.64,5.64,6.84,5.64,11.76,0,14.64-8.76,21.36-23.64,21.36-1.68,0-3.36-.12-4.8-.24-1.8,3-2.64,6.36-2.64,8.76,0,2.04,1.2,3.72,3.96,3.72l11.52.24c12.96.24,21.96,3.84,21.96,16.8s-11.88,18.84-30.72,18.84-25.92-5.4-25.92-15.48c0-7.32,4.32-12.12,13.2-14.28ZM-782.03,289.43l-14.52-.48c-4.44,1.2-7.92,3.36-7.92,9.12,0,6.72,6,8.64,16.2,8.64,11.88-.24,18.6-3,18.6-9.36s-3.48-7.68-12.36-7.92ZM-789.23,233.75c-9.84,0-12.84,4.08-12.84,12.6s3,12.48,12.84,12.48,12.84-3.96,12.96-12.48c-.12-8.52-4.32-12.6-12.96-12.6Z"/>
      <path d="M-748.91,288.47v-61.44h10.32l.12,6.12c7.92-5.04,14.4-7.56,21.12-7.56,8.52,0,15.96,5.4,15.96,17.52v45.36h-11.04v-43.8c0-5.76-2.28-9.24-7.92-9.24-6,0-11.88,2.52-17.52,5.76v47.28h-11.04Z"/>
      <path class="st22" d="M-684.35,305.99l-5.76-6.84c11.88-12.36,16.2-17.28,16.2-46.56s-4.32-34.2-16.2-46.56l5.76-6.84c14.4,11.64,21.36,20.88,21.36,53.4s-6.96,41.76-21.36,53.4Z"/>
    </g>
    <path class="st5" d="M-958.95,315.11v-92.43c0-20.52,12.2-39.31,31.24-46.96,8.85-3.56,19.14-5.78,30.45-7.04,56.06-7.66,124.17-13.37,233.49-17.94"/>
    <g>
      <path d="M-491.23,204.23c21.12,0,29.04,11.04,29.04,42.72s-8.52,42.96-29.04,42.96-29.04-11.04-29.04-42.96,8.52-42.72,29.04-42.72ZM-491.23,213.83c-13.08,0-17.4,6.36-17.4,33.12s4.32,33.36,17.4,33.36,17.4-6.48,17.4-33.36-4.32-33.12-17.4-33.12Z"/>
      <path class="st22" d="M-407.59,199.19l5.76,6.84c-11.88,12.36-16.2,17.28-16.2,46.56s4.32,34.2,16.2,46.56l-5.76,6.84c-14.4-11.64-21.36-19.8-21.36-53.4s6.96-41.76,21.36-53.4Z"/>
      <path d="M-390.19,202.07l11.04-1.2v75.24c0,4.8,2.76,4.8,5.28,4.8,1.92,0,4.08-.48,5.28-.84l1.68,8.16c-2.76.72-5.76,1.68-10.08,1.68-10.32,0-13.2-4.2-13.2-14.04v-73.8Z"/>
      <path d="M-335.95,225.59c20.04,0,25.56,11.16,25.56,32.04s-6,32.28-25.56,32.28-25.56-11.16-25.56-32.28c0-19.8,6.24-32.04,25.56-32.04ZM-335.95,234.47c-10.8,0-14.16,5.64-14.16,23.16s3.36,23.4,14.16,23.4,14.16-5.64,14.16-23.4-3.36-23.16-14.16-23.16Z"/>
      <path d="M-290.47,285.35c-2.64-1.44-4.08-4.2-4.08-6.96,0-5.28,3.12-9.96,5.76-12.96-9.24-2.88-12.12-9.84-12.12-18.48,0-14.64,8.76-21.36,23.64-21.36,4.56,0,8.28.6,11.4,1.56l19.56-.6v8.64l-12.72-1.32c3,2.64,5.64,6.84,5.64,11.76,0,14.64-8.76,21.36-23.64,21.36-1.68,0-3.36-.12-4.8-.24-1.8,3-2.64,6.36-2.64,8.76,0,2.04,1.2,3.72,3.96,3.72l11.52.24c12.96.24,21.96,3.84,21.96,16.8s-11.88,18.84-30.72,18.84-25.92-5.4-25.92-15.48c0-7.32,4.32-12.12,13.2-14.28ZM-269.95,289.43l-14.52-.48c-4.44,1.2-7.92,3.36-7.92,9.12,0,6.72,6,8.64,16.2,8.64,11.88-.24,18.6-3,18.6-9.36s-3.48-7.68-12.36-7.92ZM-277.15,233.75c-9.84,0-12.84,4.08-12.84,12.6s3,12.48,12.84,12.48,12.84-3.96,12.96-12.48c-.12-8.52-4.32-12.6-12.96-12.6Z"/>
      <path d="M-236.83,288.47v-61.44h10.32l.12,6.12c7.92-5.04,14.4-7.56,21.12-7.56,8.52,0,15.96,5.4,15.96,17.52v45.36h-11.04v-43.8c0-5.76-2.28-9.24-7.92-9.24-6,0-11.88,2.52-17.52,5.76v47.28h-11.04Z"/>
      <path class="st22" d="M-172.27,305.99l-5.76-6.84c11.88-12.36,16.2-17.28,16.2-46.56s-4.32-34.2-16.2-46.56l5.76-6.84c14.4,11.64,21.36,20.88,21.36,53.4s-6.96,41.76-21.36,53.4Z"/>
    </g>
    <path class="st5" d="M-448.21,291.52v-68.84c0-20.52,12.2-39.31,31.24-46.96,8.85-3.56,19.14-5.78,30.45-7.04,55.45-7.59,39.38-7.18,147.57-17.94"/>
    <g>
      <path class="st24" d="M-475.6,735.42c21.12,0,29.04,11.04,29.04,42.72s-8.52,42.96-29.04,42.96-29.04-11.04-29.04-42.96,8.52-42.72,29.04-42.72ZM-475.6,745.02c-13.08,0-17.4,6.36-17.4,33.12s4.32,33.36,17.4,33.36,17.4-6.48,17.4-33.36-4.32-33.12-17.4-33.12Z"/>
      <path class="st22" d="M-409.36,730.38l5.76,6.84c-11.88,12.36-16.2,17.28-16.2,46.56s4.32,34.2,16.2,46.56l-5.76,6.84c-14.4-11.64-21.36-19.8-21.36-53.4s6.96-41.76,21.36-53.4Z"/>
      <path d="M-391.96,733.26l11.04-1.2v75.24c0,4.8,2.76,4.8,5.28,4.8,1.92,0,4.08-.48,5.28-.84l1.68,8.16c-2.76.72-5.76,1.68-10.08,1.68-10.32,0-13.2-4.2-13.2-14.04v-73.8Z"/>
      <path d="M-337.72,756.78c20.04,0,25.56,11.16,25.56,32.04s-6,32.28-25.56,32.28-25.56-11.16-25.56-32.28c0-19.8,6.24-32.04,25.56-32.04ZM-337.72,765.66c-10.8,0-14.16,5.64-14.16,23.16s3.36,23.4,14.16,23.4,14.16-5.64,14.16-23.4-3.36-23.16-14.16-23.16Z"/>
      <path d="M-292.24,816.53c-2.64-1.44-4.08-4.2-4.08-6.96,0-5.28,3.12-9.96,5.76-12.96-9.24-2.88-12.12-9.84-12.12-18.48,0-14.64,8.76-21.36,23.64-21.36,4.56,0,8.28.6,11.4,1.56l19.56-.6v8.64l-12.72-1.32c3,2.64,5.64,6.84,5.64,11.76,0,14.64-8.76,21.36-23.64,21.36-1.68,0-3.36-.12-4.8-.24-1.8,3-2.64,6.36-2.64,8.76,0,2.04,1.2,3.72,3.96,3.72l11.52.24c12.96.24,21.96,3.84,21.96,16.8s-11.88,18.84-30.72,18.84-25.92-5.4-25.92-15.48c0-7.32,4.32-12.12,13.2-14.28ZM-271.72,820.61l-14.52-.48c-4.44,1.2-7.92,3.36-7.92,9.12,0,6.72,6,8.64,16.2,8.64,11.88-.24,18.6-3,18.6-9.36s-3.48-7.68-12.36-7.92ZM-278.92,764.94c-9.84,0-12.84,4.08-12.84,12.6s3,12.48,12.84,12.48,12.84-3.96,12.96-12.48c-.12-8.52-4.32-12.6-12.96-12.6Z"/>
      <path d="M-238.6,819.65v-61.44h10.32l.12,6.12c7.92-5.04,14.4-7.56,21.12-7.56,8.52,0,15.96,5.4,15.96,17.52v45.36h-11.04v-43.8c0-5.76-2.28-9.24-7.92-9.24-6,0-11.88,2.52-17.52,5.76v47.28h-11.04Z"/>
      <path class="st22" d="M-174.04,837.17l-5.76-6.84c11.88-12.36,16.2-17.28,16.2-46.56s-4.32-34.2-16.2-46.56l5.76-6.84c14.4,11.64,21.36,20.88,21.36,53.4s-6.96,41.76-21.36,53.4Z"/>
    </g>
    <path class="st5" d="M-498.63,792.11v-17.36c.71-20.05,1.51-29.84,21.04-36.14,9.88-3.19,35.4-13.25,46.88-16.09,55.62-16.66,128.7-13.78,239.64-16.09"/>
    <text class="st14" transform="translate(-870.74 334.29)"><tspan x="0" y="0">Original</tspan></text>
    <text class="st14" transform="translate(-355.33 334.72)"><tspan x="0" y="0">Kürzer</tspan></text>
    <text class="st14" transform="translate(-890.54 589.15)"><tspan x="0" y="0">Aktzent Unten</tspan></text>
    <text class="st14" transform="translate(-375.76 589.59)"><tspan x="0" y="0">Aktzent Oben</tspan></text>
    <text class="st14" transform="translate(-872.66 877.52)"><tspan x="0" y="0">Akzent 1</tspan></text>
    <text class="st14" transform="translate(-361.14 877.95)"><tspan x="0" y="0">Akzent 2</tspan></text>
    <rect class="st24" x="-830.59" y="901.26" width="170.1" height="170.1"/>
    <rect class="st0" x="-653.55" y="901.26" width="170.1" height="170.1"/>
    <rect class="st18" x="-477.13" y="901.26" width="170.1" height="170.1"/>
    <text class="st17" transform="translate(-796.53 994.23)"><tspan x="0" y="0">#1E3A8A</tspan></text>
    <text class="st16" transform="translate(-615.77 992.36)"><tspan x="0" y="0">#89e051</tspan></text>
    <text class="st16" transform="translate(-442.77 993.5)"><tspan x="0" y="0">#bded9d</tspan></text>
  </g>
  <g id="Ebene_7">
    <g>
      <path d="M111.72,412.34c58.11,0,79.91,30.38,79.91,117.55s-23.44,118.21-79.91,118.21-79.91-30.38-79.91-118.21,23.45-117.55,79.91-117.55ZM111.72,438.76c-35.99,0-47.88,17.5-47.88,91.13s11.89,91.8,47.88,91.8,47.88-17.83,47.88-91.8-11.89-91.13-47.88-91.13Z"/>
      <path class="st21" d="M341.87,398.47l15.85,18.82c-32.69,34.01-44.58,47.55-44.58,128.12s11.89,94.11,44.58,128.12l-15.85,18.82c-39.62-32.03-58.78-54.48-58.78-146.94s19.15-114.91,58.78-146.94Z"/>
      <path d="M389.76,406.4l30.38-3.3v207.04c0,13.21,7.59,13.21,14.53,13.21,5.28,0,11.23-1.32,14.53-2.31l4.62,22.45c-7.59,1.98-15.85,4.62-27.74,4.62-28.4,0-36.32-11.56-36.32-38.63v-203.07Z"/>
      <path d="M539.01,471.11c55.14,0,70.33,30.71,70.33,88.16s-16.51,88.82-70.33,88.82-70.33-30.71-70.33-88.82c0-54.48,17.17-88.16,70.33-88.16ZM539.01,495.55c-29.72,0-38.96,15.52-38.96,63.73s9.24,64.39,38.96,64.39,38.96-15.52,38.96-64.39-9.24-63.73-38.96-63.73Z"/>
      <path d="M664.16,635.55c-7.26-3.96-11.23-11.56-11.23-19.15,0-14.53,8.59-27.41,15.85-35.66-25.42-7.92-33.35-27.08-33.35-50.85,0-40.28,24.1-58.77,65.05-58.77,12.55,0,22.79,1.65,31.37,4.29l53.82-1.65v23.77l-35-3.63c8.26,7.26,15.52,18.82,15.52,32.36,0,40.28-24.1,58.78-65.05,58.78-4.62,0-9.25-.33-13.21-.66-4.95,8.26-7.26,17.5-7.26,24.1,0,5.61,3.3,10.24,10.9,10.24l31.7.66c35.66.66,60.43,10.57,60.43,46.23s-32.69,51.84-84.53,51.84-71.32-14.86-71.32-42.59c0-20.14,11.89-33.35,36.32-39.29ZM720.62,646.78l-39.95-1.32c-12.22,3.3-21.79,9.25-21.79,25.1,0,18.49,16.51,23.77,44.58,23.77,32.69-.66,51.18-8.26,51.18-25.75s-9.58-21.13-34.01-21.79ZM700.81,493.57c-27.08,0-35.33,11.23-35.33,34.67s8.26,34.34,35.33,34.34,35.33-10.9,35.66-34.34c-.33-23.44-11.89-34.67-35.66-34.67Z"/>
      <path d="M811.76,644.14v-169.06h28.4l.33,16.84c21.79-13.87,39.62-20.8,58.11-20.8,23.44,0,43.92,14.86,43.92,48.21v124.82h-30.38v-120.52c0-15.85-6.27-25.43-21.79-25.43-16.51,0-32.69,6.93-48.21,15.85v130.1h-30.38Z"/>
      <path class="st21" d="M989.41,692.35l-15.85-18.82c32.69-34.01,44.58-47.55,44.58-128.12s-11.89-94.11-44.58-128.12l15.85-18.82c39.63,32.03,58.78,57.45,58.78,146.94s-19.15,114.91-58.78,146.94Z"/>
    </g>
    <path class="st7" d="M264.41,377.96c14.56-19.26,34.17-34.72,57.5-44.1,24.36-9.8,52.66-15.9,83.78-19.38,154.26-21.09,341.68-36.79,642.51-49.37"/>
  </g>
  <g id="Ebene_6" class="st25">
    <g>
      <path d="M-866.7,731.33c38.17,0,52.49,19.95,52.49,77.21s-15.4,77.64-52.49,77.64-52.49-19.95-52.49-77.64,15.4-77.21,52.49-77.21ZM-866.7,748.68c-23.64,0-31.45,11.49-31.45,59.86s7.81,60.29,31.45,60.29,31.45-11.71,31.45-60.29-7.81-59.86-31.45-59.86Z"/>
      <path class="st21" d="M-715.53,722.22l10.41,12.36c-21.47,22.34-29.28,31.23-29.28,84.15s7.81,61.81,29.28,84.15l-10.41,12.36c-26.03-21.04-38.61-35.79-38.61-96.51s12.58-75.48,38.61-96.51Z"/>
      <path d="M-684.08,727.42l19.95-2.17v135.99c0,8.68,4.99,8.68,9.54,8.68,3.47,0,7.37-.87,9.54-1.52l3.04,14.75c-4.99,1.3-10.41,3.04-18.22,3.04-18.65,0-23.86-7.59-23.86-25.38v-133.38Z"/>
      <path d="M-586.04,769.93c36.22,0,46.2,20.17,46.2,57.91s-10.84,58.34-46.2,58.34-46.2-20.17-46.2-58.34c0-35.78,11.28-57.91,46.2-57.91ZM-586.04,785.98c-19.52,0-25.59,10.19-25.59,41.86s6.07,42.29,25.59,42.29,25.59-10.19,25.59-42.29-6.07-41.86-25.59-41.86Z"/>
      <path d="M-503.84,877.94c-4.77-2.6-7.37-7.59-7.37-12.58,0-9.54,5.64-18,10.41-23.42-16.7-5.21-21.9-17.78-21.9-33.4,0-26.46,15.83-38.6,42.73-38.6,8.24,0,14.97,1.08,20.6,2.82l35.35-1.08v15.62l-22.99-2.39c5.42,4.77,10.19,12.36,10.19,21.25,0,26.46-15.83,38.61-42.73,38.61-3.04,0-6.07-.22-8.68-.43-3.25,5.42-4.77,11.49-4.77,15.83,0,3.69,2.17,6.72,7.16,6.72l20.82.43c23.42.43,39.69,6.94,39.69,30.36s-21.47,34.05-55.52,34.05-46.85-9.76-46.85-27.98c0-13.23,7.81-21.91,23.86-25.81ZM-466.75,885.31l-26.24-.87c-8.03,2.17-14.31,6.07-14.31,16.48,0,12.15,10.84,15.62,29.28,15.62,21.47-.43,33.62-5.42,33.62-16.92s-6.29-13.88-22.34-14.31ZM-479.77,784.68c-17.78,0-23.21,7.37-23.21,22.77s5.42,22.56,23.21,22.56,23.21-7.16,23.42-22.56c-.22-15.4-7.81-22.77-23.42-22.77Z"/>
      <path d="M-406.89,883.58v-111.04h18.65l.22,11.06c14.31-9.11,26.03-13.66,38.17-13.66,15.4,0,28.84,9.76,28.84,31.66v81.98h-19.95v-79.16c0-10.41-4.12-16.7-14.31-16.7-10.84,0-21.47,4.55-31.67,10.41v85.45h-19.95Z"/>
      <path class="st21" d="M-290.21,915.24l-10.41-12.36c21.47-22.34,29.28-31.23,29.28-84.15s-7.81-61.81-29.28-84.15l10.41-12.36c26.03,21.04,38.61,37.74,38.61,96.51s-12.58,75.48-38.61,96.51Z"/>
    </g>
    <g class="st1">
      <path class="st6" d="M-766.41,708.75c9.57-12.65,22.44-22.8,37.77-28.97,16-6.44,34.59-10.44,55.03-12.73,101.32-13.85,224.43-24.17,422.01-32.43"/>
    </g>
    <g>
      <path d="M-857.35,248.71c38.17,0,52.49,19.95,52.49,77.21s-15.4,77.64-52.49,77.64-52.49-19.95-52.49-77.64,15.4-77.21,52.49-77.21ZM-857.35,266.06c-23.64,0-31.45,11.49-31.45,59.86s7.81,60.29,31.45,60.29,31.45-11.71,31.45-60.29-7.81-59.86-31.45-59.86Z"/>
      <path class="st22" d="M-706.18,239.6l10.41,12.36c-21.47,22.34-29.28,31.23-29.28,84.15s7.81,61.81,29.28,84.15l-10.41,12.36c-26.03-21.04-38.61-35.79-38.61-96.51s12.58-75.48,38.61-96.51Z"/>
      <path d="M-674.73,244.8l19.95-2.17v135.99c0,8.68,4.99,8.68,9.54,8.68,3.47,0,7.37-.87,9.54-1.52l3.04,14.75c-4.99,1.3-10.41,3.04-18.22,3.04-18.65,0-23.86-7.59-23.86-25.38v-133.38Z"/>
      <path d="M-576.7,287.31c36.22,0,46.2,20.17,46.2,57.91s-10.84,58.34-46.2,58.34-46.2-20.17-46.2-58.34c0-35.78,11.28-57.91,46.2-57.91ZM-576.7,303.36c-19.52,0-25.59,10.19-25.59,41.86s6.07,42.29,25.59,42.29,25.59-10.19,25.59-42.29-6.07-41.86-25.59-41.86Z"/>
      <path d="M-494.49,395.32c-4.77-2.6-7.37-7.59-7.37-12.58,0-9.54,5.64-18,10.41-23.42-16.7-5.21-21.9-17.78-21.9-33.4,0-26.46,15.83-38.6,42.73-38.6,8.24,0,14.97,1.08,20.6,2.82l35.35-1.08v15.62l-22.99-2.39c5.42,4.77,10.19,12.36,10.19,21.25,0,26.46-15.83,38.61-42.73,38.61-3.04,0-6.07-.22-8.68-.43-3.25,5.42-4.77,11.49-4.77,15.83,0,3.69,2.17,6.72,7.16,6.72l20.82.43c23.42.43,39.69,6.94,39.69,30.36s-21.47,34.05-55.52,34.05-46.85-9.76-46.85-27.98c0-13.23,7.81-21.91,23.86-25.81ZM-457.4,402.69l-26.24-.87c-8.03,2.17-14.31,6.07-14.31,16.48,0,12.15,10.84,15.62,29.28,15.62,21.47-.43,33.62-5.42,33.62-16.92s-6.29-13.88-22.34-14.31ZM-470.42,302.06c-17.78,0-23.21,7.37-23.21,22.77s5.42,22.56,23.21,22.56,23.21-7.16,23.42-22.56c-.22-15.4-7.81-22.77-23.42-22.77Z"/>
      <path d="M-397.54,400.96v-111.04h18.65l.22,11.06c14.31-9.11,26.03-13.66,38.17-13.66,15.4,0,28.84,9.76,28.84,31.66v81.98h-19.95v-79.16c0-10.41-4.12-16.7-14.31-16.7-10.84,0-21.47,4.55-31.67,10.41v85.45h-19.95Z"/>
      <path class="st22" d="M-280.86,432.62l-10.41-12.36c21.47-22.34,29.28-31.23,29.28-84.15s-7.81-61.81-29.28-84.15l10.41-12.36c26.03,21.04,38.61,37.74,38.61,96.51s-12.58,75.48-38.61,96.51Z"/>
    </g>
    <g class="st19">
      <path class="st6" d="M-779.6,406.46v-124.43c0-37.08,22.05-71.05,56.46-84.88,16-6.44,34.59-10.44,55.03-12.73,100.22-13.72,71.17-12.97,266.72-32.43"/>
    </g>
  </g>
  <g id="Ebene_3" class="st25">
    <g>
      <path d="M-1009.39,385.45c55.19,0,75.88,28.85,75.88,111.62s-22.26,112.25-75.88,112.25-75.88-28.85-75.88-112.25,22.26-111.62,75.88-111.62ZM-1009.39,410.54c-34.18,0-45.47,16.62-45.47,86.54s11.29,87.17,45.47,87.17,45.47-16.93,45.47-87.17-11.29-86.54-45.47-86.54Z"/>
      <path class="st22" d="M-790.84,372.28l15.05,17.87c-31.04,32.3-42.33,45.15-42.33,121.66s11.29,89.36,42.33,121.66l-15.05,17.87c-37.63-30.41-55.81-51.74-55.81-139.53s18.19-109.12,55.81-139.53Z"/>
      <path d="M-745.37,379.81l28.85-3.14v196.6c0,12.54,7.21,12.54,13.8,12.54,5.02,0,10.66-1.25,13.8-2.19l4.39,21.32c-7.21,1.88-15.05,4.39-26.34,4.39-26.96,0-34.49-10.97-34.49-36.69v-192.83Z"/>
      <path d="M-603.64,441.26c52.36,0,66.79,29.16,66.79,83.72s-15.68,84.35-66.79,84.35-66.79-29.16-66.79-84.35c0-51.74,16.3-83.72,66.79-83.72ZM-603.64,464.47c-28.22,0-37,14.74-37,60.52s8.78,61.14,37,61.14,37-14.74,37-61.14-8.78-60.52-37-60.52Z"/>
      <path d="M-484.8,597.41c-6.9-3.76-10.66-10.97-10.66-18.19,0-13.8,8.15-26.02,15.05-33.86-24.14-7.53-31.67-25.71-31.67-48.29,0-38.25,22.89-55.81,61.77-55.81,11.91,0,21.64,1.57,29.79,4.08l51.11-1.57v22.58l-33.24-3.45c7.84,6.9,14.74,17.87,14.74,30.73,0,38.25-22.89,55.81-61.77,55.81-4.39,0-8.78-.31-12.54-.63-4.7,7.84-6.9,16.62-6.9,22.89,0,5.33,3.13,9.72,10.35,9.72l30.1.63c33.86.63,57.38,10.03,57.38,43.9s-31.04,49.23-80.27,49.23-67.73-14.11-67.73-40.45c0-19.13,11.29-31.67,34.49-37.31ZM-431.18,608.07l-37.94-1.25c-11.6,3.13-20.7,8.78-20.7,23.83,0,17.56,15.68,22.58,42.33,22.58,31.04-.63,48.6-7.84,48.6-24.46s-9.09-20.07-32.3-20.7ZM-450,462.59c-25.71,0-33.55,10.66-33.55,32.92s7.84,32.61,33.55,32.61,33.55-10.35,33.86-32.61c-.31-22.26-11.29-32.92-33.86-32.92Z"/>
      <path d="M-344.64,605.57v-160.54h26.96l.31,15.99c20.69-13.17,37.63-19.75,55.19-19.75,22.26,0,41.7,14.11,41.7,45.78v118.52h-28.85v-114.45c0-15.05-5.96-24.14-20.7-24.14-15.68,0-31.04,6.58-45.78,15.05v123.54h-28.85Z"/>
      <path class="st22" d="M-175.94,651.35l-15.05-17.87c31.04-32.3,42.33-45.15,42.33-121.66s-11.29-89.36-42.33-121.66l15.05-17.87c37.63,30.41,55.81,54.56,55.81,139.53s-18.18,109.12-55.81,139.53Z"/>
    </g>
    <path class="st11" d="M-891.42,675.17v-241.53c0-53.61,31.88-102.71,81.62-122.72,23.13-9.3,50.01-15.1,79.56-18.4,146.48-20.02,324.46-34.94,610.12-46.88"/>
  </g>
</svg>